<svg width="24" height="24" viewBox="0 0 24 24" fill="none" xmlns="http://www.w3.org/2000/svg">
<path d="M3 20.5C3 20.7761 3.22386 21 3.5 21H6C6.27614 21 6.5 20.7761 6.5 20.5V15.5C6.5 14.9477 6.05228 14.5 5.5 14.5H4C3.44772 14.5 3 14.9477 3 15.5V20.5Z" fill="black" stroke="black" stroke-width="2"/>
<path d="M10 20.5C10 20.7761 10.2239 21 10.5 21H13C13.2761 21 13.5 20.7761 13.5 20.5V11C13.5 10.4477 13.0523 10 12.5 10H11C10.4477 10 10 10.4477 10 11V20.5Z" fill="black" stroke="black" stroke-width="2"/>
<path d="M17 20.5C17 20.7761 17.2239 21 17.5 21H20C20.2761 21 20.5 20.7761 20.5 20.5V4C20.5 3.44772 20.0523 3 19.5 3H18C17.4477 3 17 3.44772 17 4V20.5Z" fill="black" stroke="black" stroke-width="2"/>
</svg>
