<svg width="24" height="24" viewBox="0 0 24 24" fill="none" xmlns="http://www.w3.org/2000/svg">
<path d="M6 21H3.5C3.22386 21 3 20.7761 3 20.5V15C3 14.4477 3.44772 14 4 14H5.5C6.05228 14 6.5 14.4477 6.5 15V20.5C6.5 20.7761 6.27614 21 6 21Z" stroke="black" stroke-width="2"/>
<path d="M13 21H10.5C10.2239 21 10 20.7761 10 20.5V11C10 10.4477 10.4477 10 11 10H12.5C13.0523 10 13.5 10.4477 13.5 11V20.5C13.5 20.7761 13.2761 21 13 21Z" stroke="black" stroke-width="2"/>
<path d="M20 21H17.5C17.2239 21 17 20.7761 17 20.5V4C17 3.44772 17.4477 3 18 3H19.5C20.0523 3 20.5 3.44772 20.5 4V20.5C20.5 20.7761 20.2761 21 20 21Z" stroke="black" stroke-width="2"/>
</svg>
