<svg width="24" height="24" viewBox="0 0 24 24" fill="none" xmlns="http://www.w3.org/2000/svg">
<path d="M3.70553 9.36621L3.09337 9.71807L3.70553 9.36621C3.53214 9.06455 3.52159 8.68522 3.70584 8.36609L4.70584 6.63404C4.89012 6.31487 5.22396 6.13433 5.57196 6.13371C5.98948 6.13297 6.56102 6.06036 7.06178 5.70335L9.01885 4.57173C9.57661 4.31675 9.92472 3.85974 10.1342 3.49917C10.3088 3.19852 10.6318 3 11.0001 3H13.0001C13.3683 3 13.6914 3.19852 13.866 3.49917C14.0755 3.85974 14.4236 4.31675 14.9813 4.57173L16.9384 5.70335C17.4392 6.06035 18.0107 6.13296 18.4282 6.13371C18.7762 6.13433 19.11 6.31487 19.2943 6.63404L20.2943 8.36609C20.4785 8.68522 20.468 9.06453 20.2946 9.3662C20.0869 9.72752 19.8647 10.2573 19.9225 10.868L19.9225 13.1321C19.8647 13.7428 20.0869 14.2726 20.2946 14.6339L21.1616 14.1356L20.2946 14.6339C20.468 14.9356 20.4785 15.3149 20.2943 15.634L19.2943 17.3661C19.11 17.6853 18.7762 17.8658 18.4281 17.8664C18.0106 17.8672 17.4391 17.9397 16.9383 18.2968L14.9813 19.4283C14.4236 19.6833 14.0755 20.1403 13.866 20.5008C13.6914 20.8015 13.3683 21 13.0001 21H11.0001C10.6318 21 10.3088 20.8015 10.1342 20.5008C9.92472 20.1403 9.57661 19.6832 9.01884 19.4283L7.06192 18.2968C6.56112 17.9397 5.98955 17.8672 5.57201 17.8664C5.22399 17.8658 4.89012 17.6853 4.70584 17.3661L3.70584 15.634C3.52159 15.3149 3.53214 14.9356 3.70553 14.6339C3.91323 14.2726 4.13546 13.7427 4.07767 13.132L4.07766 10.868C4.13544 10.2574 3.91322 9.72755 3.70553 9.36621ZM12.0001 14C13.1046 14 14.0001 13.1046 14.0001 12C14.0001 10.8954 13.1046 10 12.0001 10C10.8955 10 10.0001 10.8954 10.0001 12C10.0001 13.1046 10.8955 14 12.0001 14Z" stroke="black" stroke-width="2"/>
</svg>
