<svg width="24" height="24" viewBox="0 0 24 24" fill="none" xmlns="http://www.w3.org/2000/svg">
<path fill-rule="evenodd" clip-rule="evenodd" d="M11.0454 3C9.99099 3 9.13626 3.80589 9.13626 4.8C9.13626 5.11634 8.93077 5.39751 8.62979 5.53729L7.75142 6.01626C7.47199 6.19298 7.10991 6.22042 6.81852 6.06179C5.90541 5.56474 4.73782 5.85971 4.21064 6.72064L3.25609 8.27948C2.72891 9.14041 3.04176 10.2413 3.95487 10.7383C4.24603 10.8968 4.38553 11.2337 4.36354 11.55V12.45C4.38553 12.7663 4.24604 13.1033 3.95487 13.2618C3.04176 13.7588 2.72891 14.8597 3.25609 15.7206L4.21064 17.2795C4.73782 18.1404 5.90541 18.4354 6.81852 17.9383C7.10997 17.7797 7.47212 17.8071 7.75161 17.9839L8.62979 18.4627C8.93077 18.6025 9.13626 18.8837 9.13626 19.2C9.13626 20.1941 9.99099 21 11.0454 21H12.9545C14.0088 21 14.8636 20.1941 14.8636 19.2C14.8636 18.8837 15.069 18.6025 15.37 18.4627L16.2482 17.9839C16.5277 17.8071 16.89 17.7796 17.1815 17.9383C18.0946 18.4354 19.2622 18.1404 19.7894 17.2795L20.7439 15.7206C21.2711 14.8597 20.9582 13.7588 20.0451 13.2618C19.7539 13.1032 19.6143 12.7664 19.6363 12.45V11.55C19.6143 11.2336 19.7539 10.8969 20.0451 10.7383C20.9582 10.2413 21.2711 9.14041 20.7439 8.27948L19.7894 6.72064C19.2622 5.85971 18.0946 5.56474 17.1815 6.06179C16.89 6.22045 16.5279 6.19301 16.2484 6.01625L15.37 5.5373C15.069 5.39751 14.8636 5.11634 14.8636 4.8C14.8636 3.80589 14.0088 3 12.9545 3H11.0454ZM11.9999 14C13.1585 14 14 13 14 12C14 11 13.1716 10 11.9999 10C10.8283 10 10 11 10 12C10 13 10.8414 14 11.9999 14Z" fill="black"/>
<path fill-rule="evenodd" clip-rule="evenodd" d="M11.0454 3C9.99099 3 9.13626 3.80589 9.13626 4.8C9.13626 5.11634 8.93077 5.39751 8.62979 5.53729L7.75142 6.01626C7.47199 6.19298 7.10991 6.22042 6.81852 6.06179C5.90541 5.56474 4.73782 5.85971 4.21064 6.72064L3.25609 8.27948C2.72891 9.14041 3.04176 10.2413 3.95487 10.7383C4.24603 10.8968 4.38553 11.2337 4.36354 11.55V12.45C4.38553 12.7663 4.24604 13.1033 3.95487 13.2618C3.04176 13.7588 2.72891 14.8597 3.25609 15.7206L4.21064 17.2795C4.73782 18.1404 5.90541 18.4354 6.81852 17.9383C7.10997 17.7797 7.47212 17.8071 7.75161 17.9839L8.62979 18.4627C8.93077 18.6025 9.13626 18.8837 9.13626 19.2C9.13626 20.1941 9.99099 21 11.0454 21H12.9545C14.0088 21 14.8636 20.1941 14.8636 19.2C14.8636 18.8837 15.069 18.6025 15.37 18.4627L16.2482 17.9839C16.5277 17.8071 16.89 17.7796 17.1815 17.9383C18.0946 18.4354 19.2622 18.1404 19.7894 17.2795L20.7439 15.7206C21.2711 14.8597 20.9582 13.7588 20.0451 13.2618C19.7539 13.1032 19.6143 12.7664 19.6363 12.45V11.55C19.6143 11.2336 19.7539 10.8969 20.0451 10.7383C20.9582 10.2413 21.2711 9.14041 20.7439 8.27948L19.7894 6.72064C19.2622 5.85971 18.0946 5.56474 17.1815 6.06179C16.89 6.22045 16.5279 6.19301 16.2484 6.01625L15.37 5.5373C15.069 5.39751 14.8636 5.11634 14.8636 4.8C14.8636 3.80589 14.0088 3 12.9545 3H11.0454ZM11.9999 14C13.1585 14 14 13 14 12C14 11 13.1716 10 11.9999 10C10.8283 10 10 11 10 12C10 13 10.8414 14 11.9999 14Z" stroke="black" stroke-width="2"/>
</svg>
