<svg width="24" height="24" viewBox="0 0 24 24" fill="none" xmlns="http://www.w3.org/2000/svg">
<path d="M9.13626 4.8C9.13626 3.80589 9.99099 3 11.0454 3H12.9545C14.0088 3 14.8636 3.80589 14.8636 4.8C14.8636 5.11634 15.069 5.39751 15.37 5.5373L16.2484 6.01625C16.5279 6.19301 16.89 6.22045 17.1815 6.06179C18.0946 5.56474 19.2622 5.85971 19.7894 6.72064L20.7439 8.27948C21.2711 9.14041 20.9582 10.2413 20.0451 10.7383C19.7539 10.8969 19.6143 11.2336 19.6363 11.55V12.45C19.6143 12.7664 19.7539 13.1032 20.0451 13.2618C20.9582 13.7588 21.2711 14.8597 20.7439 15.7206L19.7894 17.2795C19.2622 18.1404 18.0946 18.4354 17.1815 17.9383C16.89 17.7796 16.5277 17.8071 16.2482 17.9839L15.37 18.4627C15.069 18.6025 14.8636 18.8837 14.8636 19.2C14.8636 20.1941 14.0088 21 12.9545 21H11.0454C9.99099 21 9.13626 20.1941 9.13626 19.2C9.13626 18.8837 8.93077 18.6025 8.62979 18.4627L7.75161 17.9839C7.47212 17.8071 7.10997 17.7797 6.81852 17.9383C5.90541 18.4354 4.73782 18.1404 4.21064 17.2795L3.25609 15.7206C2.72891 14.8597 3.04176 13.7588 3.95487 13.2618C4.24604 13.1033 4.38553 12.7663 4.36354 12.45V11.55C4.38553 11.2337 4.24603 10.8968 3.95487 10.7383C3.04176 10.2413 2.72891 9.14041 3.25609 8.27948L4.21064 6.72064C4.73782 5.85971 5.90541 5.56474 6.81852 6.06179C7.10991 6.22042 7.47199 6.19298 7.75142 6.01626L8.62979 5.53729C8.93077 5.39751 9.13626 5.11634 9.13626 4.8Z" stroke="black" stroke-width="2"/>
</svg>
