<svg width="24" height="24" viewBox="0 0 24 24" fill="none" xmlns="http://www.w3.org/2000/svg">
<path d="M9 12H8C6.89543 12 6 12.8954 6 14V16C6 17.1046 6.89543 18 8 18H9M13 12H11.5C10.6716 12 10 12.6716 10 13.5V13.5C10 14.3284 10.6716 15 11.5 15V15C12.3284 15 13 15.6716 13 16.5V16.5C13 17.3284 12.3284 18 11.5 18H10M14 11.5L15.5149 17.5597C15.6412 18.0647 16.3588 18.0647 16.4851 17.5597L18 11.5M20 10V19C20 20.1046 19.1046 21 18 21H6C4.89543 21 4 20.1046 4 19V5C4 3.89543 4.89543 3 6 3H14L20 10Z" stroke="black"/>
<path d="M13.5462 2H6C4.34315 2 3 3.34315 3 5V18.891C3 20.5394 4.32991 21.879 5.97822 21.891L17.9782 21.9781C19.6435 21.9902 21 20.6435 21 18.9781V10.3757C21 10.1335 20.9121 9.89952 20.7526 9.71723L14.2988 2.3415C14.1089 2.12448 13.8346 2 13.5462 2Z" stroke="black"/>
</svg>
