<svg width="24" height="24" viewBox="0 0 24 24" fill="none" xmlns="http://www.w3.org/2000/svg">
<path fill-rule="evenodd" clip-rule="evenodd" d="M12.6696 4.5C9.49333 4.5 6.75665 6.72204 5.87058 9.82934V9.82934C6.26503 9.64676 6.73281 9.81852 6.91539 10.213L7.00485 10.4062C7.23684 10.9074 7.0186 11.5018 6.5174 11.7338L4.30365 12.7585L2.63858 10.7519C2.2859 10.3269 2.34454 9.69643 2.76956 9.34375L3.02426 9.1324C3.3086 8.89645 3.73039 8.93568 3.96634 9.22003V9.22003C5.10016 5.35275 8.54021 2.5 12.6696 2.5C17.7402 2.5 21.7696 6.79927 21.7696 12C21.7696 17.2007 17.7402 21.5 12.6696 21.5C9.84402 21.5 7.33313 20.1573 5.67161 18.0734C5.32731 17.6415 5.46794 17.0192 5.93357 16.7222V16.7222C6.39919 16.4252 7.01257 16.5674 7.36878 16.9895C8.67639 18.5388 10.5734 19.5 12.6696 19.5C16.5459 19.5 19.7696 16.1881 19.7696 12C19.7696 7.81189 16.5459 4.5 12.6696 4.5ZM13.2696 12.1502V9.25C13.2696 8.69771 12.8218 8.25 12.2696 8.25V8.25C11.7173 8.25 11.2696 8.69772 11.2696 9.25V12.8498L12.9819 14.9977C13.3262 15.4295 13.9554 15.5005 14.3872 15.1563V15.1563C14.819 14.812 14.89 14.1828 14.5458 13.751L13.2696 12.1502Z" fill="black"/>
</svg>
