<svg width="24" height="24" viewBox="0 0 24 24" fill="none" xmlns="http://www.w3.org/2000/svg">
<path d="M14.3933 17H9.59002C9.16653 16.9966 8.76162 16.8331 8.46372 16.5452C8.16582 16.2573 7.99911 15.8683 8 15.4632V4.53682C7.99911 4.13172 8.16582 3.74273 8.46372 3.4548C8.76162 3.16686 9.16653 3.00336 9.59002 3H14.3933C14.8195 3 15.2281 3.16191 15.5294 3.45012C15.8307 3.73833 16 4.12923 16 4.53682V15.4632C16.0004 15.6651 15.9592 15.8651 15.8786 16.0518C15.798 16.2384 15.6797 16.408 15.5304 16.5508C15.3811 16.6936 15.2038 16.8068 15.0087 16.8839C14.8136 16.961 14.6045 17.0004 14.3933 17Z" fill="black" stroke="black" stroke-width="2" stroke-miterlimit="10"/>
<path d="M4 12V16.9091C4 17.9941 4.42143 19.0346 5.17157 19.8018C5.92172 20.569 6.93913 21 8 21H16C17.0609 21 18.0783 20.569 18.8284 19.8018C19.5786 19.0346 20 17.9941 20 16.9091V12" stroke="black" stroke-width="2" stroke-miterlimit="10"/>
</svg>
