<svg width="24" height="24" viewBox="0 0 24 24" fill="none" xmlns="http://www.w3.org/2000/svg">
<path d="M11.9853 4H6C4.89543 4 4 4.89543 4 6V18C4 19.1046 4.89543 20 6 20H17C18.1046 20 19 19.1046 19 18V11.5" stroke="black" stroke-width="2"/>
<path fill-rule="evenodd" clip-rule="evenodd" d="M16.3496 3.14973C16.4604 2.89676 16.7552 2.78145 17.0082 2.89218L19.8847 4.15129C20.3907 4.37275 20.6213 4.96242 20.3998 5.46836L19.1407 8.34492C19.03 8.59789 18.7352 8.7132 18.4822 8.60247L17.5661 8.20149C17.3131 8.09076 17.1978 7.79592 17.3086 7.54295L17.6473 6.7691C16.5483 7.22185 15.6838 7.71974 14.9463 8.34318C13.8769 9.24711 13.0042 10.4751 12.1101 12.389C11.9932 12.6392 11.6981 12.7535 11.4458 12.6414L10.5319 12.2353C10.2796 12.1231 10.1655 11.8272 10.282 11.5769C11.2522 9.49204 12.2814 7.97691 13.6552 6.81574C14.558 6.05258 15.5788 5.46882 16.7661 4.96943L16.2062 4.72435C15.9532 4.61363 15.8379 4.31879 15.9487 4.06582L16.3496 3.14973Z" fill="black"/>
</svg>
