<svg width="24" height="24" viewBox="0 0 24 24" fill="none" xmlns="http://www.w3.org/2000/svg">
<path d="M15 21C14.5714 18.2182 13.3714 15.6818 9 15.2727C13.3714 14.8636 14.5714 12.3273 15 9.54545C15.4286 12.3273 16.6286 14.8636 21 15.2727C16.5429 15.6818 15.3429 18.2182 15 21Z" stroke="black" stroke-width="1.5" stroke-miterlimit="10" stroke-linecap="round" stroke-linejoin="round"/>
<path d="M7.71429 12C7.37143 9.79091 6.42857 7.82727 3 7.5C6.42857 7.17273 7.37143 5.20909 7.71429 3C8.05714 5.20909 9 7.17273 12.4286 7.5C8.91429 7.82727 7.97143 9.79091 7.71429 12Z" stroke="black" stroke-width="1.5" stroke-miterlimit="10" stroke-linecap="round" stroke-linejoin="round"/>
<path d="M17.9143 7.09091C17.8286 6.27273 17.4857 5.53636 16.2 5.45455C17.4857 5.37273 17.8286 4.63636 17.9143 3.81818C18 4.63636 18.3429 5.37273 19.6286 5.45455C18.3429 5.53636 18 6.27273 17.9143 7.09091Z" stroke="black" stroke-width="1.5" stroke-miterlimit="10" stroke-linecap="round" stroke-linejoin="round"/>
</svg>
