<svg width="24" height="24" viewBox="0 0 24 24" fill="none" xmlns="http://www.w3.org/2000/svg">
<path d="M8.12886 4.5V13.889L10.5543 19.0111C11.4216 20.8426 13.9543 19.9329 13.67 17.8921L13.3564 15.6406C13.2282 14.7194 13.8769 13.889 14.7249 13.889H18.7838C20.2478 13.889 21.3092 12.3558 20.9183 10.8052L19.6533 5.78459C19.3876 4.73009 18.5143 4 17.5187 4L8.12886 4.5Z" fill="black"/>
<path d="M8.12886 13.889H4.38436C3.61979 13.889 3 13.2079 3 12.3676V5.5214C3 4.68116 3.61979 4 4.38436 4L8.12886 4.5M8.12886 13.889V4.5M8.12886 13.889L10.5543 19.0111C11.4216 20.8426 13.9543 19.9329 13.67 17.8921L13.3564 15.6406C13.2282 14.7194 13.8769 13.889 14.7249 13.889H18.7838C20.2478 13.889 21.3092 12.3558 20.9183 10.8052L19.6533 5.78459C19.3876 4.73009 18.5143 4 17.5187 4L8.12886 4.5" stroke="black" stroke-width="2" stroke-linejoin="round"/>
</svg>
