<?xml version="1.0" standalone="no"?>
<!DOCTYPE svg PUBLIC "-//W3C//DTD SVG 1.1//EN" "http://www.w3.org/Graphics/SVG/1.1/DTD/svg11.dtd" >
<svg xmlns="http://www.w3.org/2000/svg">
<metadata>Generated by IcoMoon</metadata>
<defs>
<font id="adaicons" horiz-adv-x="1024">
<font-face units-per-em="1024" ascent="960" descent="-64" />
<missing-glyph horiz-adv-x="1024" />
<glyph unicode="&#x20;" horiz-adv-x="512" d="" />
<glyph unicode="&#xe900;" glyph-name="arrow-right" d="M562.633 679.036c6.707 9.536 19.831 11.918 29.466 5.347l320.73-218.757c12.416-8.469 12.416-26.782 0-35.251l-320.73-218.752c-9.634-6.571-22.758-4.19-29.466 5.346l-24.734 35.149c-6.78 9.634-4.467 22.942 5.167 29.722l175.497 123.499h-611.895c-11.782 0-21.333 9.549-21.333 21.333v42.667c0 11.78 9.551 21.333 21.333 21.333h611.895l-175.497 123.495c-9.634 6.781-11.947 20.088-5.167 29.724l24.734 35.146z" />
<glyph unicode="&#xe901;" glyph-name="bar-chart" d="M85.333 320c0 47.13 38.205 85.333 85.333 85.333h64c47.128 0 85.333-38.204 85.333-85.333v-234.667c0-35.345-28.654-64-64-64h-106.667c-35.346 0-64 28.655-64 64v234.667zM234.667 320h-64v-213.333h64v213.333zM384 490.667c0 47.128 38.205 85.333 85.333 85.333h64c47.13 0 85.333-38.205 85.333-85.333v-405.333c0-35.345-28.655-64-64-64h-106.667c-35.346 0-64 28.655-64 64v405.333zM533.333 490.667h-64v-384h64v384zM682.667 789.333c0 47.128 38.204 85.333 85.333 85.333h64c47.13 0 85.333-38.205 85.333-85.333v-704c0-35.345-28.655-64-64-64h-106.667c-35.345 0-64 28.655-64 64v704zM832 789.333h-64v-682.667h64v682.667z" />
<glyph unicode="&#xe902;" glyph-name="bar-chart-filled" d="M85.333 298.667c0 47.13 38.205 85.333 85.333 85.333h64c47.128 0 85.333-38.204 85.333-85.333v-213.333c0-35.345-28.654-64-64-64h-106.667c-35.346 0-64 28.655-64 64v213.333zM384 490.667c0 47.128 38.205 85.333 85.333 85.333h64c47.13 0 85.333-38.205 85.333-85.333v-405.333c0-35.345-28.655-64-64-64h-106.667c-35.346 0-64 28.655-64 64v405.333zM682.667 789.333c0 47.128 38.204 85.333 85.333 85.333h64c47.13 0 85.333-38.205 85.333-85.333v-704c0-35.345-28.655-64-64-64h-106.667c-35.345 0-64 28.655-64 64v704z" />
<glyph unicode="&#xe903;" glyph-name="bin" d="M236.648 789.333h126.019v42.667c0 42.667 42.667 85.333 85.333 85.333h128c42.667 0 85.333-42.667 85.333-85.333v-42.667h126.016c48.649 0 87.454-40.609 85.244-89.208l-19.145-421.192c-0.213-4.685-0.828-9.613-1.95-14.558-38.878-171.452-192.956-253.709-339.503-253.709-146.543 0-300.623 82.257-339.499 253.709-1.121 4.945-1.737 9.873-1.95 14.558l-19.145 421.192c-2.209 48.599 36.596 89.208 85.245 89.208zM787.349 704h-550.702l19.139-421.056c27.893-122.321 138.29-186.944 256.209-186.944 117.922 0 228.318 64.623 256.213 186.944l19.14 421.056zM575.996 832h-128v-42.667h128v42.667zM576 309.333c0-17.673 14.327-32 32-32s32 14.327 32 32v256c0 17.673-14.327 32-32 32s-32-14.327-32-32v-256zM384 309.333c0-17.673 14.327-32 32-32s32 14.327 32 32v256c0 17.673-14.327 32-32 32s-32-14.327-32-32v-256z" />
<glyph unicode="&#xe904;" glyph-name="bookmark" d="M312.058 704.098c-39.366-49.49-56.058-114.11-56.058-170.753v-419.241l256 219.447 256-219.447v419.241c0 33.496-15.727 99.381-57.143 156.18-40.021 54.887-102.682 99.808-198.857 99.808-99.767 0-161.838-37.331-199.942-85.235zM245.275 757.219c55.229 69.433 142.492 117.447 266.725 117.447 127.825 0 214.498-61.751 267.81-134.865 51.917-71.2 73.523-154.644 73.523-206.456v-419.386c0-73.195-85.739-111.902-140.868-64.64l-200.465 171.84-200.463-171.84c-55.343-47.441-140.87-8.141-140.87 64.781v419.246c0 71.321 20.642 156.029 74.609 223.875z" />
<glyph unicode="&#xe905;" glyph-name="bookmark-filled" d="M245.275 757.219c55.229 69.433 142.492 117.447 266.725 117.447 127.825 0 214.498-61.751 267.81-134.865 51.917-71.2 73.523-154.644 73.523-206.456v-419.386c0-73.195-85.739-111.902-140.868-64.64l-200.465 171.84-200.463-171.84c-55.343-47.441-140.87-8.141-140.87 64.781v419.246c0 71.321 20.642 156.029 74.609 223.875z" />
<glyph unicode="&#xe906;" glyph-name="cog" d="M347.287 760.932c3.136 65.42 59.698 113.734 123.983 113.734h81.455c64.286 0 120.849-48.314 123.985-113.734l38.268-20.874c57.621 29.845 131.294 11.761 165.756-44.524l40.73-66.511c34.914-57.019 14.669-128.338-40.977-161.9v-38.251c55.646-33.562 75.891-104.883 40.977-161.903l-40.73-66.509c-34.466-56.286-108.139-74.372-165.76-44.523l-0.077-0.051-38.187-20.817c-3.136-65.421-59.699-113.737-123.985-113.737h-81.455c-64.285 0-120.847 48.316-123.983 113.737l-38.26 20.868c-57.62-29.845-131.291-11.763-165.757 44.523l-40.727 66.509c-34.914 57.020-14.669 128.333 40.972 161.899v38.259c-55.64 33.562-75.885 104.879-40.972 161.896l40.727 66.511c34.465 56.283 108.134 74.369 165.752 44.527l0.070 0.044 38.195 20.827zM471.27 789.333c-23.821 0-38.788-17.613-38.788-34.133 0-32.209-20.249-57.433-44.833-69.454l-35.5-19.358c-23.514-14.227-54.79-17.105-81.623-2.499-19.974 10.873-44.423 3.511-54.483-12.918l-40.727-66.511c-9.080-14.828-4.816-35.007 13.827-45.155 29.594-16.11 40.914-47.423 39.704-73.296v-36.019c1.21-25.869-10.106-57.19-39.704-73.301-18.643-10.146-22.907-30.327-13.827-45.154l40.727-66.513c10.060-16.427 34.509-23.791 54.483-12.915 26.836 14.605 58.113 11.729 81.629-2.5l35.493-19.354c24.584-12.019 44.833-37.244 44.833-69.453 0-16.521 14.967-34.133 38.788-34.133h81.455c23.825 0 38.788 17.613 38.788 34.133 0 32.209 20.25 57.434 44.834 69.453l35.494 19.354c23.518 14.229 54.797 17.109 81.638 2.5 19.972-10.876 44.42-3.511 54.481 12.915l40.73 66.513c9.079 14.827 4.813 35.008-13.828 45.154-29.594 16.111-40.922 47.42-39.71 73.301v36.019c-1.212 25.886 10.121 57.186 39.71 73.296 18.641 10.149 22.908 30.327 13.828 45.155l-40.73 66.511c-10.061 16.429-34.509 23.791-54.481 12.918-26.837-14.609-58.116-11.729-81.634 2.499l-35.499 19.357c-24.585 12.021-44.834 37.245-44.834 69.454 0 16.521-14.963 34.133-38.788 34.133h-81.455zM511.996 490.667c-24.090 0-42.662-21.158-42.662-42.667 0-21.316 18.953-42.667 42.662-42.667 23.718 0 42.671 21.355 42.671 42.667 0 21.504-18.577 42.667-42.671 42.667zM384 448c0 63.825 52.109 128 127.996 128s128.004-64.171 128.004-128c0-64.021-52.855-128-128.004-128s-127.996 63.983-127.996 128z" />
<glyph unicode="&#xe907;" glyph-name="cog-filled" d="M347.287 760.932c3.136 65.42 59.698 113.734 123.983 113.734h81.455c64.286 0 120.849-48.314 123.985-113.734l38.268-20.874c57.621 29.845 131.294 11.761 165.756-44.524l40.73-66.511c34.914-57.019 14.669-128.338-40.977-161.9v-38.251c55.646-33.562 75.891-104.883 40.977-161.903l-40.73-66.509c-34.466-56.286-108.139-74.372-165.76-44.523l-0.077-0.051-38.187-20.817c-3.136-65.421-59.699-113.737-123.985-113.737h-81.455c-64.285 0-120.847 48.316-123.983 113.737l-38.26 20.868c-57.62-29.845-131.291-11.763-165.757 44.523l-40.727 66.509c-34.914 57.020-14.669 128.333 40.972 161.899v38.259c-55.64 33.562-75.885 104.879-40.972 161.896l40.727 66.511c34.465 56.283 108.134 74.369 165.752 44.527l0.070 0.044 38.195 20.827zM512 490.667c-24.090 0-42.662-21.158-42.662-42.667 0-21.316 18.953-42.667 42.662-42.667 23.714 0 42.671 21.355 42.671 42.667 0 21.504-18.577 42.667-42.671 42.667z" />
<glyph unicode="&#xe908;" glyph-name="cog-smooth" d="M121.166 624.38l42.667 73.901c15.778 27.329 44.39 42.628 73.829 42.681 14.267 0.025 28.937 2.745 40.24 11.45l87.597 50.651c13.164 5.438 22.845 16.754 29.999 29.071 14.773 25.433 42.31 42.534 73.84 42.534h85.333c31.531 0 59.068-17.101 73.839-42.534 7.155-12.316 16.836-23.633 29.999-29.071l87.599-50.651c11.302-8.705 25.971-11.424 40.239-11.45 29.436-0.053 58.048-15.352 73.826-42.681l42.667-73.901c15.778-27.325 14.724-59.747 0.055-85.266-7.091-12.339-12.058-26.363-10.202-40.473v-101.286c-1.86-14.11 3.11-28.134 10.202-40.474 14.669-25.519 15.723-57.941-0.055-85.265l-42.667-73.903c-15.778-27.328-44.39-42.628-73.83-42.679-14.268-0.026-28.937-2.743-40.243-11.452l-87.59-50.645c-13.163-5.436-22.844-16.755-29.999-29.069-14.771-25.434-42.308-42.534-73.839-42.534h-85.333c-31.531 0-59.067 17.101-73.84 42.534-7.154 12.314-16.835 23.633-29.999 29.069l-87.591 50.645c-11.304 8.708-25.975 11.426-40.243 11.452-29.439 0.051-58.054 15.351-73.833 42.679l-42.667 73.903c-15.776 27.324-14.722 59.746-0.054 85.265 7.092 12.339 12.061 26.364 10.202 40.474v101.286c1.859 14.11-3.11 28.134-10.202 40.472-14.668 25.519-15.722 57.942 0.055 85.267zM324.259 680.645c-31.134-21.429-64.935-24.978-86.446-25.017l-0.078-0.014-42.668-73.901 0.027-0.076c4.809-8.367 10.24-19.224 14.496-32.053 5.219-15.728 8.673-34.418 7.057-55.12v-92.932c2.936-37.585-10.848-68.553-21.553-87.177l-0.027-0.073 42.666-73.903 0.080-0.013c21.512-0.038 55.315-3.588 86.451-25.015l80.291-46.426c33.998-16.23 53.936-43.614 64.731-62.195l0.051-0.064 85.385 0.064c10.795 18.581 30.733 45.965 64.73 62.195l80.29 46.426c31.138 21.427 64.939 24.977 86.451 25.015l0.081 0.013 42.667 73.903-0.030 0.073c-10.705 18.624-24.486 49.591-21.551 87.172v92.941c-2.935 37.581 10.85 68.546 21.551 87.169l0.030 0.076-42.671 73.901-0.077 0.014c-21.513 0.038-55.309 3.588-86.443 25.017l-80.299 46.43c-4.399 2.099-8.559 4.384-12.497 6.814-1.771 1.092-3.494 2.214-5.175 3.36-23.479 16.015-38.298 36.938-47.066 52.035l-0.043 0.049-85.385-0.062c-10.795-18.581-30.733-45.967-64.73-62.196l-80.297-46.43zM512.004 576c19.878 0 38.703-4.533 55.492-12.622 0.619-0.298 1.233-0.602 1.847-0.909 41.903-21.031 70.66-64.391 70.66-114.469 0-69.303-55.078-125.739-123.844-127.932-1.382-0.047-2.765-0.068-4.156-0.068-50.044 0-93.379 28.715-114.426 70.571-8.128 16.162-12.933 34.287-13.516 53.474-0.032 1.037-0.051 2.074-0.058 3.119l-0.003 0.836c0 70.694 57.308 128 128.002 128zM512.004 490.667c-23.565 0-42.667-19.102-42.667-42.667s19.102-42.667 42.667-42.667c9.148 0 17.626 2.88 24.572 7.782 10.944 7.723 18.095 20.467 18.095 34.884 0 7.799-2.095 15.108-5.747 21.397-7.386 12.719-21.154 21.269-36.919 21.269z" />
<glyph unicode="&#xe909;" glyph-name="cog-smooth-filled" d="M237.661 740.962c14.267 0.025 28.937 2.745 40.24 11.45l87.597 50.651c13.164 5.438 22.845 16.754 29.999 29.071 14.773 25.433 42.31 42.534 73.84 42.534h85.333c31.531 0 59.068-17.101 73.839-42.534 7.155-12.316 16.836-23.633 29.999-29.071l87.599-50.651c11.302-8.705 25.971-11.424 40.239-11.45 29.436-0.053 58.048-15.352 73.826-42.681l42.667-73.901c15.778-27.325 14.724-59.747 0.055-85.266-7.091-12.339-12.058-26.363-10.202-40.473v-101.286c-1.86-14.11 3.11-28.134 10.202-40.474 14.669-25.519 15.723-57.941-0.055-85.265l-42.667-73.903c-15.778-27.328-44.39-42.628-73.83-42.679-14.268-0.026-28.937-2.743-40.243-11.452l-87.59-50.645c-13.163-5.436-22.844-16.755-29.999-29.069-14.771-25.434-42.308-42.534-73.839-42.534h-85.333c-31.531 0-59.067 17.101-73.84 42.534-7.154 12.314-16.835 23.633-29.999 29.069l-87.591 50.645c-11.304 8.708-25.975 11.426-40.243 11.452-29.439 0.051-58.054 15.351-73.833 42.679l-42.667 73.903c-15.776 27.324-14.722 59.746-0.054 85.265 7.092 12.339 12.061 26.364 10.202 40.474v101.286c1.859 14.11-3.11 28.134-10.202 40.472-14.668 25.519-15.722 57.942 0.055 85.267l42.667 73.901c15.778 27.329 44.39 42.628 73.829 42.681zM512.004 405.333c23.561 0 42.667 19.102 42.667 42.667s-19.106 42.667-42.667 42.667c-23.565 0-42.667-19.102-42.667-42.667s19.102-42.667 42.667-42.667z" />
<glyph unicode="&#xe90a;" glyph-name="cog-sparkle" d="M691.81 864c15.778 0 29.201-11.501 31.62-27.092 6.942-44.732 19.345-82.163 43.661-109.941 23.565-26.928 61.833-48.709 128.9-55.111 16.435-1.569 28.979-15.383 28.962-31.892-0.021-16.509-12.595-30.294-29.035-31.825-69.167-6.441-108.177-28.373-131.571-55.104-24.017-27.436-35.597-64.445-40.751-108.733-1.852-15.902-15.172-27.989-31.177-28.297-16.009-0.303-29.777 11.268-32.23 27.089-6.946 44.732-19.349 82.163-43.661 109.94-23.569 26.928-61.833 48.709-128.905 55.111-16.418 1.568-28.958 15.36-28.958 31.855s12.54 30.288 28.958 31.855c67.072 6.402 105.335 28.183 128.905 55.111 24.311 27.778 36.715 65.209 43.661 109.941 2.419 15.592 15.842 27.092 31.62 27.092zM608.055 640c22.413-12.060 41.139-27.113 56.636-44.816 10.197-11.652 18.714-24.14 25.856-37.178 6.993 13.036 15.437 25.521 25.638 37.178 15.787 18.035 35.063 33.282 58.266 45.419-21.922 11.957-40.286 26.804-55.522 44.213-10.807 12.347-19.725 25.632-27.119 39.517-7.398-13.885-16.316-27.17-27.119-39.517-15.497-17.703-34.223-32.756-56.636-44.816zM457.143 480c16.38 0 30.118-12.373 31.825-28.668 1.54-14.69 4.992-23.603 9.724-29.060 3.951-4.557 12.343-10.799 33.626-12.156 16.849-1.071 29.969-15.049 29.969-31.936 0-16.883-13.12-30.861-29.969-31.932-21.282-1.357-29.675-7.599-33.626-12.156-4.732-5.457-8.183-14.37-9.724-29.065-1.707-16.29-15.445-28.663-31.825-28.663-16.384 0-30.118 12.373-31.826 28.663-1.539 14.694-4.992 23.607-9.724 29.065-3.952 4.557-12.342 10.799-33.626 12.156-16.85 1.071-29.968 15.049-29.968 31.932 0 16.887 13.118 30.865 29.968 31.936 21.283 1.357 29.674 7.599 33.626 12.156 4.731 5.457 8.184 14.37 9.724 29.060 1.708 16.294 15.442 28.668 31.826 28.668zM347.287 760.932c3.136 65.42 59.698 113.734 123.983 113.734v-85.333c-23.821 0-38.788-17.613-38.788-34.133 0-32.209-20.249-57.433-44.833-69.454l-35.5-19.358c-23.514-14.227-54.79-17.105-81.623-2.499-19.974 10.873-44.423 3.511-54.483-12.918l-40.727-66.511c-9.080-14.828-4.816-35.007 13.827-45.155 29.594-16.11 40.914-47.423 39.704-73.296v-36.019c1.21-25.869-10.106-57.19-39.704-73.301-18.643-10.146-22.907-30.327-13.827-45.154l40.727-66.513c10.060-16.427 34.509-23.791 54.483-12.915 26.836 14.605 58.113 11.729 81.629-2.5l35.493-19.354c24.584-12.019 44.833-37.244 44.833-69.453 0-16.521 14.967-34.133 38.788-34.133h81.455c23.825 0 38.788 17.613 38.788 34.133 0 32.209 20.25 57.434 44.834 69.453l35.494 19.354c23.518 14.229 54.797 17.109 81.638 2.5 19.972-10.876 44.42-3.511 54.481 12.915l40.73 66.513c9.079 14.827 4.813 35.008-13.828 45.154l40.798 74.948c59.277-32.265 81.707-106.027 45.803-164.668l-40.73-66.509c-34.466-56.286-108.139-74.372-165.76-44.523l-0.077-0.051-38.187-20.817c-3.136-65.421-59.699-113.737-123.985-113.737h-81.455c-64.285 0-120.847 48.316-123.983 113.737l-38.26 20.868c-57.62-29.845-131.291-11.763-165.757 44.523l-40.727 66.509c-34.914 57.020-14.669 128.333 40.972 161.899v38.259c-55.64 33.562-75.885 104.879-40.972 161.896l40.727 66.511c34.465 56.283 108.134 74.369 165.752 44.527l0.070 0.044 38.195 20.827z" />
<glyph unicode="&#xe90b;" glyph-name="cog-sparkle-filled" d="M691.81 864c15.778 0 29.201-11.501 31.62-27.092 6.942-44.732 19.345-82.163 43.661-109.941 23.565-26.928 61.833-48.709 128.9-55.111 16.435-1.569 28.979-15.383 28.962-31.892-0.021-16.509-12.595-30.294-29.035-31.825-69.167-6.441-108.177-28.373-131.571-55.104-24.017-27.436-35.597-64.445-40.751-108.733-1.852-15.902-15.172-27.989-31.177-28.297-16.009-0.303-29.777 11.268-32.23 27.089-6.946 44.732-19.349 82.163-43.661 109.94-23.569 26.928-61.833 48.709-128.905 55.111-16.418 1.568-28.958 15.36-28.958 31.855s12.54 30.288 28.958 31.855c67.072 6.402 105.335 28.183 128.905 55.111 24.311 27.778 36.715 65.209 43.661 109.941 2.419 15.592 15.842 27.092 31.62 27.092zM347.287 760.932c3.136 65.42 59.698 113.734 123.983 113.734v-85.333c-23.821 0-38.788-17.613-38.788-34.133 0-32.209-20.249-57.433-44.833-69.454l-35.5-19.358c-23.514-14.227-54.79-17.105-81.623-2.499-19.974 10.873-44.423 3.511-54.483-12.918l-40.727-66.511c-9.080-14.828-4.816-35.007 13.827-45.155 29.594-16.11 40.914-47.423 39.704-73.296v-36.019c1.21-25.869-10.106-57.19-39.704-73.301-18.643-10.146-22.907-30.327-13.827-45.154l40.727-66.513c10.060-16.427 34.509-23.791 54.483-12.915 26.836 14.605 58.113 11.729 81.629-2.5l35.493-19.354c24.584-12.019 44.833-37.244 44.833-69.453 0-16.521 14.967-34.133 38.788-34.133h81.455c23.825 0 38.788 17.613 38.788 34.133 0 32.209 20.25 57.434 44.834 69.453l35.494 19.354c23.518 14.229 54.797 17.109 81.638 2.5 19.972-10.876 44.42-3.511 54.481 12.915l40.73 66.513c9.079 14.827 4.813 35.008-13.828 45.154l40.798 74.948c59.277-32.265 81.707-106.027 45.803-164.668l-40.73-66.509c-34.466-56.286-108.139-74.372-165.76-44.523l-0.077-0.051-38.187-20.817c-3.136-65.421-59.699-113.737-123.985-113.737h-81.455c-64.285 0-120.847 48.316-123.983 113.737l-38.26 20.868c-57.62-29.845-131.291-11.763-165.757 44.523l-40.727 66.509c-34.914 57.020-14.669 128.333 40.972 161.899v38.259c-55.64 33.562-75.885 104.879-40.972 161.896l40.727 66.511c34.465 56.283 108.134 74.369 165.752 44.527l0.070 0.044 38.195 20.827zM457.143 480c16.38 0 30.118-12.373 31.825-28.668 1.54-14.69 4.992-23.603 9.724-29.060 3.951-4.557 12.343-10.799 33.626-12.156 16.849-1.071 29.969-15.049 29.969-31.936 0-16.883-13.12-30.861-29.969-31.932-21.282-1.357-29.675-7.599-33.626-12.156-4.732-5.457-8.183-14.37-9.724-29.065-1.707-16.29-15.445-28.663-31.825-28.663-16.384 0-30.118 12.373-31.826 28.663-1.539 14.694-4.992 23.607-9.724 29.065-3.952 4.557-12.342 10.799-33.626 12.156-16.85 1.071-29.968 15.049-29.968 31.932 0 16.887 13.118 30.865 29.968 31.936 21.283 1.357 29.674 7.599 33.626 12.156 4.731 5.457 8.184 14.37 9.724 29.060 1.708 16.294 15.442 28.668 31.826 28.668z" />
<glyph unicode="&#xe90c;" glyph-name="copy" d="M746.667 789.333c23.565 0 42.667-19.103 42.667-42.667v-426.667c0-23.565-19.102-42.667-42.667-42.667h-213.333c-23.565 0-42.667 19.102-42.667 42.667v426.667c0 23.564 19.102 42.667 42.667 42.667h213.333zM874.667 746.667c0 70.692-57.306 128-128 128h-213.333c-70.694 0-128-57.308-128-128v-426.667c0-70.694 57.306-128 128-128h213.333c70.694 0 128 57.306 128 128v426.667zM298.667 576c-23.564 0-42.667-19.103-42.667-42.667v-384c0-23.565 19.102-42.667 42.667-42.667h213.333c23.565 0 42.667 19.102 42.667 42.667h85.333c0-70.694-57.306-128-128-128h-213.333c-70.692 0-128 57.306-128 128v384c0 70.692 57.308 128 128 128h64v-85.333h-64z" />
<glyph unicode="&#xe90d;" glyph-name="copy-filled" d="M874.667 746.667c0 70.692-57.306 128-128 128h-213.333c-70.694 0-128-57.308-128-128v-426.667c0-70.694 57.306-128 128-128h213.333c70.694 0 128 57.306 128 128v426.667zM362.667 661.333v-384c0-64 64-128 128-128h149.333c0-70.694-57.306-128-128-128h-213.333c-70.692 0-128 57.306-128 128v384c0 70.692 57.308 128 128 128h64z" />
<glyph unicode="&#xe90e;" glyph-name="filter" d="M497.344 149.338v222.14c0 57.028-22.835 111.68-63.403 151.761l-226.147 223.428h615.493l-217.101-225.327c-38.306-39.753-59.708-92.813-59.708-148.019v-175.863c0-26.573-21.542-48.115-48.115-48.119h-1.020zM412.009 66.714c0-1.498 1.215-2.714 2.714-2.714l83.645 0.004c73.702 0.004 133.444 59.755 133.444 133.453v175.863c0 33.126 12.843 64.96 35.823 88.815l217.105 225.323c52.22 54.198 13.811 144.541-61.453 144.541h-615.493c-76.273 0-114.232-92.431-59.974-146.037l226.149-223.426c24.341-24.051 38.040-56.841 38.040-91.059v-304.764z" />
<glyph unicode="&#xe90f;" glyph-name="filter-filled" d="M412.009 66.714c0-1.498 1.215-2.714 2.714-2.714l83.645 0.004c73.702 0.004 133.444 59.755 133.444 133.453v175.863c0 33.126 12.843 64.96 35.823 88.815l217.105 225.323c52.22 54.198 13.811 144.541-61.453 144.541h-615.493c-76.273 0-114.232-92.431-59.974-146.037l226.149-223.426c24.341-24.051 38.040-56.841 38.040-91.059v-304.764z" />
<glyph unicode="&#xe910;" glyph-name="grouped-bar-chart" d="M128 661.333c0 47.128 38.205 85.333 85.333 85.333h64c47.128 0 85.333-38.205 85.333-85.333v-149.333h64c47.13 0 85.333-38.204 85.333-85.333v-341.333c0-35.345-28.655-64-64-64h-256c-35.346 0-64 28.655-64 64v576zM362.667 426.667v-320h64v320h-64zM277.333 106.667v554.667h-64v-554.667h64zM554.667 789.333c0 47.128 38.204 85.333 85.333 85.333h64c47.13 0 85.333-38.205 85.333-85.333v-170.667h64c47.13 0 85.333-38.205 85.333-85.333v-448c0-35.345-28.655-64-64-64h-256c-35.345 0-64 28.655-64 64v704zM789.333 533.333v-426.667h64v426.667h-64zM704 106.667v682.667h-64v-682.667h64z" />
<glyph unicode="&#xe911;" glyph-name="grouped-bar-chart-filled" d="M85.333 661.333c0 47.128 38.205 85.333 85.333 85.333h64c47.128 0 85.333-38.205 85.333-85.333v-149.333h64c47.13 0 85.333-38.204 85.333-85.333v-341.333c0-35.345-28.655-64-64-64h-256c-35.346 0-64 28.655-64 64v576zM554.667 789.333c0 47.128 38.204 85.333 85.333 85.333h64c47.13 0 85.333-38.205 85.333-85.333v-170.667h64c47.13 0 85.333-38.205 85.333-85.333v-448c0-35.345-28.655-64-64-64h-256c-35.345 0-64 28.655-64 64v704z" />
<glyph unicode="&#xe912;" glyph-name="help" d="M170.667 448c0-188.514 152.82-341.333 341.333-341.333s341.333 152.819 341.333 341.333c0 188.513-152.819 341.333-341.333 341.333s-341.333-152.82-341.333-341.333zM512 21.333c-235.642 0-426.667 191.027-426.667 426.667 0 235.642 191.025 426.667 426.667 426.667 235.639 0 426.667-191.025 426.667-426.667 0-235.639-191.027-426.667-426.667-426.667zM529.323 625.708c37.717 0 67.857-10.354 90.411-31.061 22.929-20.707 34.389-48.995 34.389-84.866 0-37.346-11.831-65.451-35.499-84.309-23.663-18.859-55.095-28.288-94.293-28.288l-2.219-43.819h-54.912l-2.773 87.083h18.304c35.87 0 63.232 4.809 82.091 14.421 19.23 9.617 28.843 27.921 28.843 54.912 0 19.601-5.73 34.946-17.195 46.039-11.093 11.093-26.624 16.64-46.592 16.64s-35.682-5.362-47.147-16.085c-11.46-10.723-17.195-25.7-17.195-44.93h-59.348c0 22.188 4.992 41.972 14.976 59.351s24.221 30.877 42.708 40.491c18.859 9.614 40.678 14.421 65.451 14.421zM493.824 230.784c-11.46 0-21.077 3.883-28.843 11.648s-11.648 17.382-11.648 28.843c0 11.465 3.883 21.077 11.648 28.843s17.382 11.648 28.843 11.648c11.093 0 20.523-3.883 28.288-11.648s11.648-17.378 11.648-28.843c0-11.46-3.883-21.077-11.648-28.843s-17.195-11.648-28.288-11.648z" />
<glyph unicode="&#xe913;" glyph-name="divide" d="M917.333 405.333c11.78 0 21.333 9.553 21.333 21.333v42.667c0 11.78-9.553 21.333-21.333 21.333h-810.667c-11.782 0-21.333-9.553-21.333-21.333v-42.667c0-11.78 9.551-21.333 21.333-21.333h810.667zM512 192c-23.565 0-42.667 19.102-42.667 42.667s19.102 42.667 42.667 42.667c23.565 0 42.667-19.102 42.667-42.667s-19.102-42.667-42.667-42.667zM512 106.667c70.694 0 128 57.306 128 128s-57.306 128-128 128c-70.694 0-128-57.306-128-128s57.306-128 128-128zM512 618.667c-23.565 0-42.667 19.103-42.667 42.667s19.102 42.667 42.667 42.667c23.565 0 42.667-19.103 42.667-42.667s-19.102-42.667-42.667-42.667zM512 533.333c70.694 0 128 57.308 128 128s-57.306 128-128 128c-70.694 0-128-57.308-128-128s57.306-128 128-128z" />
<glyph unicode="&#xe914;" glyph-name="line-chart" d="M85.333 149.333v682.667h85.333v-682.667c0-23.565 19.103-42.667 42.667-42.667h682.667v-85.333h-682.667c-70.692 0-128 57.306-128 128zM874.662 639.997c16.666-16.662 16.666-43.677 0-60.34l-122.82-122.825c-49.988-49.984-131.034-49.984-181.022 0l-9.886 9.89c-16.154 16.149-42.163 16.717-58.999 1.28l-164.321-150.626c-17.37-15.923-44.36-14.75-60.283 2.62s-14.749 44.361 2.621 60.284l164.319 150.626c50.517 46.308 128.546 44.613 177.003-3.844l9.886-9.89c16.666-16.661 43.678-16.661 60.343 0l122.82 122.825c16.666 16.663 43.678 16.663 60.339 0z" />
<glyph unicode="&#xe915;" glyph-name="mic" d="M614.114 874.667c28.902 0 56.977-10.964 77.965-31.040 21.052-20.137 33.254-47.864 33.254-77.198v-466.141c-3.119-42.47-14.78-57.306-33.254-76.894-18.47-19.593-39.36-28.924-78.003-31.394h-205.241c-28.746 0.226-56.595 11.315-77.369 31.394-20.825 20.126-32.849 47.727-32.8 76.885v466.109c-0.757 34.473 5.21 51.817 32.8 77.239 23.058 21.246 37.711 28.586 77.708 31.040h204.941zM409.38 789.333c-7.34-0.091-13.991-2.952-18.61-7.417-4.583-4.43-6.783-10.004-6.771-15.393v-466.38c-0.012-5.389 2.188-10.961 6.771-15.394 4.619-4.463 11.27-7.326 18.61-7.415h204.819c3.648-0.009 7.219 0.678 10.496 1.971 3.273 1.293 6.127 3.145 8.439 5.359s4.041 4.736 5.18 7.373c1.135 2.633 1.69 5.38 1.685 8.111v466.282c0 5.448-2.244 11.077-6.903 15.533-4.723 4.518-11.52 7.371-18.982 7.371h-204.734zM128 238.545v209.455h85.333v-209.455c0-35.281 13.713-68.932 37.827-93.594 24.082-24.627 56.538-38.285 90.173-38.285h341.333c33.634 0 66.091 13.658 90.172 38.285 24.115 24.661 37.828 58.313 37.828 93.594v209.455h85.333v-209.455c0-57.301-22.251-112.444-62.148-153.25-39.927-40.836-94.293-63.962-151.185-63.962h-341.333c-56.893 0-111.256 23.125-151.186 63.962-39.898 40.806-62.147 95.949-62.147 153.25z" />
<glyph unicode="&#xe916;" glyph-name="mic-filled" d="M614.178 874.667h-204.943c-39.997-2.454-54.65-9.793-77.708-31.040-27.59-25.421-33.557-42.765-32.8-77.239v-466.109c-0.049-29.158 11.975-56.759 32.8-76.885 20.774-20.079 48.623-31.168 77.369-31.394h205.242c38.643 2.47 59.529 11.802 78.003 31.394 18.47 19.588 30.131 34.423 33.25 76.894v466.141c0 29.334-12.198 57.061-33.25 77.198-20.988 20.076-49.067 31.040-77.965 31.040zM128 238.545v209.455h85.333v-209.455c0-35.281 13.713-68.932 37.827-93.594 24.082-24.627 56.538-38.285 90.173-38.285h341.333c33.634 0 66.091 13.658 90.172 38.285 24.115 24.661 37.828 58.313 37.828 93.594v209.455h85.333v-209.455c0-57.301-22.251-112.444-62.148-153.25-39.927-40.836-94.293-63.962-151.185-63.962h-341.333c-56.893 0-111.256 23.125-151.186 63.962-39.898 40.806-62.147 95.949-62.147 153.25z" />
<glyph unicode="&#xe917;" glyph-name="new-conversation" d="M213.333 746.667c-23.564 0-42.667-19.103-42.667-42.667v-554.667c0-23.565 19.103-42.667 42.667-42.667h554.667c23.565 0 42.667 19.102 42.667 42.667v384.418h85.333v-384.418c0-70.694-57.306-128-128-128h-554.667c-70.692 0-128 57.306-128 128v554.667c0 70.692 57.308 128 128 128h364.301v-85.333h-364.301zM892.002 789.333l-422.665-469.333-63.41 57.105 422.668 469.333 63.407-57.105z" />
<glyph unicode="&#xe918;" glyph-name="number" d="M88.573 601.601v88.064h164.523v-497.665h-98.304v409.601h-66.219zM309.282 299.861c43.691 36.412 78.507 66.675 104.448 90.795 25.941 24.576 47.561 50.065 64.853 76.459 17.293 26.398 25.941 52.339 25.941 77.825 0 23.211-5.461 41.415-16.384 54.613s-27.763 19.798-50.517 19.798c-22.755 0-40.277-7.737-52.565-23.211-12.288-15.019-18.659-35.726-19.115-62.122h-92.843c1.821 54.613 17.977 96.028 48.469 124.245 30.948 28.217 70.087 42.326 117.419 42.326 51.883 0 91.703-13.881 119.467-41.643 27.763-27.307 41.643-63.488 41.643-108.544 0-35.5-9.557-69.403-28.672-101.719-19.115-32.311-40.96-60.527-65.536-84.651-24.576-23.663-56.661-52.335-96.256-86.016h201.387v-79.189h-337.237v70.997l35.499 30.037zM604.343 558.593c2.274 45.511 18.206 80.555 47.787 105.131 30.037 25.031 69.406 37.547 118.101 37.547 33.225 0 61.666-5.917 85.333-17.75 23.667-11.377 41.417-27.079 53.248-47.104 12.288-19.569 18.432-41.87 18.432-66.901 0-28.672-7.509-53.019-22.528-73.047-14.562-19.567-32.085-32.768-52.565-39.595v-2.731c26.398-8.192 46.878-22.754 61.44-43.691 15.019-20.932 22.528-47.787 22.528-80.555 0-27.307-6.37-51.652-19.115-73.045-12.288-21.389-30.72-38.229-55.296-50.517-24.119-11.831-53.248-17.749-87.381-17.749-51.426 0-93.299 12.971-125.611 38.912s-49.378 64.171-51.2 114.688h92.843c0.909-22.298 8.418-40.277 22.528-53.931 14.562-13.197 34.359-19.797 59.392-19.797 23.211 0 40.96 6.374 53.248 19.115 12.745 13.201 19.115 30.037 19.115 50.517 0 27.307-8.649 46.878-25.941 58.709-17.293 11.836-44.147 17.749-80.555 17.749h-19.797v78.507h19.797c64.627 0 96.939 21.619 96.939 64.855 0 19.57-5.918 34.816-17.749 45.739-11.379 10.922-27.989 16.384-49.835 16.384-21.389 0-38.003-5.916-49.835-17.749-11.379-11.377-17.975-25.941-19.797-43.691h-93.525z" />
<glyph unicode="&#xe919;" glyph-name="percent" d="M298.667 533.333c-70.692 0-128 57.308-128 128s57.308 128 128 128c70.692 0 128-57.308 128-128s-57.308-128-128-128zM298.667 448c117.821 0 213.333 95.513 213.333 213.333s-95.513 213.333-213.333 213.333c-117.821 0-213.333-95.513-213.333-213.333s95.513-213.333 213.333-213.333zM725.333 106.667c-70.694 0-128 57.306-128 128s57.306 128 128 128c70.694 0 128-57.306 128-128s-57.306-128-128-128zM725.333 21.333c117.82 0 213.333 95.514 213.333 213.333s-95.514 213.333-213.333 213.333c-117.82 0-213.333-95.514-213.333-213.333s95.514-213.333 213.333-213.333zM844.348 805.808l-597.333-768.001-67.358 52.39 597.334 768 67.358-52.39z" />
<glyph unicode="&#xe91a;" glyph-name="pie-chart" d="M192 426.667c0-165.133 132.643-298.667 298.667-298.667 136.593 0 250.287 89.459 286.549 213.333h-243.883c-70.694 0-128 57.306-128 128v243.651c-123.345-36.697-213.333-151.043-213.333-286.318zM490.667 42.667c-213.333 0-384 171.921-384 384 0 197.679 149.371 360.471 341.402 381.664 23.424 2.585 42.598-16.766 42.598-40.331v-298.666c0-23.565 19.102-42.667 42.667-42.667h298.667c23.565 0 42.914-19.174 40.371-42.603-20.954-193.007-182.78-341.397-381.705-341.397zM618.667 755.648v-200.981h200.981c-28.659 96.302-104.678 172.32-200.981 200.981zM575.932 850.997c178.044-19.65 319.415-161.021 339.063-339.065 2.586-23.424-16.764-42.598-40.329-42.598h-298.667c-23.565 0-42.667 19.102-42.667 42.667v298.666c0 23.564 19.174 42.916 42.598 40.331z" />
<glyph unicode="&#xe91b;" glyph-name="pie-chart-filled" d="M106.667 426.667c0-212.079 170.667-384 384-384 198.925 0 360.751 148.39 381.705 341.397 2.543 23.428-16.806 42.603-40.371 42.603h-298.667c-23.565 0-42.667 19.102-42.667 42.667v298.666c0 23.564-19.174 42.916-42.598 40.331-192.031-21.193-341.402-183.985-341.402-381.664zM575.932 850.997c178.044-19.65 319.415-161.021 339.063-339.065 2.586-23.424-16.764-42.598-40.329-42.598h-298.667c-23.565 0-42.667 19.102-42.667 42.667v298.666c0 23.564 19.174 42.916 42.598 40.331z" />
<glyph unicode="&#xe91c;" glyph-name="plus" d="M448 405.333c11.78 0 21.333-9.553 21.333-21.333v-341.333c0-11.78 9.553-21.333 21.333-21.333h42.667c11.78 0 21.333 9.553 21.333 21.333v341.333c0 11.78 9.553 21.333 21.333 21.333h341.333c11.78 0 21.333 9.553 21.333 21.333v42.667c0 11.78-9.553 21.333-21.333 21.333h-341.333c-11.78 0-21.333 9.553-21.333 21.333v341.333c0 11.782-9.553 21.333-21.333 21.333h-42.667c-11.78 0-21.333-9.551-21.333-21.333v-341.333c0-11.78-9.553-21.333-21.333-21.333h-341.333c-11.782 0-21.333-9.553-21.333-21.333v-42.667c0-11.78 9.551-21.333 21.333-21.333h341.333z" />
<glyph unicode="&#xe91d;" glyph-name="profile" d="M839.373 265.515c-10.372 103.731-123.814 162.697-214.673 111.59-69.978-39.364-155.418-39.364-225.39 0-90.862 51.106-204.302-7.859-214.675-111.59l-4.318-43.179c-3.399-33.988 19.798-63.991 52.031-69.077 206.799-32.614 352.561-32.674 559.34-0.026 32.218 5.090 55.403 35.085 52.006 69.073l-4.322 43.209zM582.865 451.477c144.503 81.284 324.919-12.497 341.419-177.472l4.322-43.209c7.744-77.466-45.193-149.466-123.61-161.852-215.616-34.048-370.355-33.98-585.942 0.026-78.429 12.369-131.395 84.373-123.647 161.856l4.318 43.179c16.497 164.975 196.913 258.756 341.418 177.472 43.998-24.747 97.724-24.747 141.722 0zM512 768c-58.91 0-106.667-47.756-106.667-106.667s47.757-106.667 106.667-106.667c58.91 0 106.667 47.756 106.667 106.667s-47.757 106.667-106.667 106.667zM320 661.333c0 106.039 85.961 192 192 192s192-85.961 192-192c0-106.039-85.961-192-192-192s-192 85.961-192 192z" />
<glyph unicode="&#xe91e;" glyph-name="profile-filled" d="M582.865 451.477c144.503 81.284 324.919-12.497 341.419-177.472l4.322-43.209c7.744-77.466-45.188-149.466-123.61-161.852-215.616-34.048-370.355-33.98-585.942 0.026-78.429 12.369-131.395 84.373-123.647 161.856l4.318 43.179c16.497 164.975 196.913 258.756 341.418 177.472 43.998-24.747 97.724-24.747 141.722 0zM320 661.333c0 106.039 85.961 192 192 192s192-85.961 192-192c0-106.039-85.961-192-192-192s-192 85.961-192 192z" />
<glyph unicode="&#xe91f;" glyph-name="share" d="M256 746.667c-23.564 0-42.667-19.103-42.667-42.667v-512c0-23.565 19.103-42.667 42.667-42.667h469.333c23.565 0 42.667 19.102 42.667 42.667v277.333h85.333v-277.333c0-70.694-57.306-128-128-128h-469.333c-70.692 0-128 57.306-128 128v512c0 70.692 57.308 128 128 128h255.373v-85.333h-255.373zM697.587 825.61c4.727 10.793 17.306 15.713 28.1 10.989l122.731-53.722c21.589-9.449 31.428-34.608 21.978-56.195l-53.722-122.733c-4.723-10.793-17.301-15.713-28.096-10.989l-39.087 17.108c-10.795 4.724-15.714 17.304-10.987 28.097l14.451 33.018c-46.891-19.317-83.776-40.56-115.243-67.16-45.628-38.568-82.863-90.961-121.011-172.625-4.988-10.675-17.579-15.552-28.343-10.765l-38.993 17.327c-10.765 4.787-15.633 17.412-10.662 28.092 41.395 88.953 85.308 153.598 143.923 203.142 38.519 32.561 82.078 57.469 132.732 78.776l-23.889 10.456c-10.795 4.724-15.714 17.304-10.987 28.098l17.105 39.086z" />
<glyph unicode="&#xe920;" glyph-name="sparkle" d="M329.143 864c15.778 0 29.201-11.501 31.621-27.092 6.943-44.732 19.346-82.163 43.658-109.941 23.567-26.928 61.835-48.709 128.902-55.111 16.435-1.569 28.979-15.383 28.962-31.892-0.021-16.509-12.595-30.294-29.035-31.825-69.167-6.441-108.177-28.373-131.572-55.104-24.014-27.436-35.596-64.445-40.751-108.733-1.851-15.902-15.169-27.989-31.176-28.297-16.007-0.303-29.775 11.268-32.231 27.089-6.943 44.732-19.346 82.163-43.658 109.94-23.568 26.928-61.834 48.709-128.904 55.111-16.42 1.568-28.959 15.36-28.959 31.855s12.539 30.288 28.959 31.855c67.070 6.402 105.336 28.183 128.904 55.111 24.312 27.778 36.716 65.209 43.658 109.941 2.42 15.592 15.843 27.092 31.622 27.092zM245.391 640c22.411-12.060 41.138-27.113 56.632-44.816 10.198-11.652 18.714-24.14 25.856-37.178 6.996 13.036 15.439 25.521 25.641 37.178 15.785 18.035 35.061 33.282 58.262 45.419-21.918 11.957-40.282 26.804-55.519 44.213-10.807 12.347-19.724 25.632-27.12 39.517-7.396-13.885-16.314-27.17-27.12-39.517-15.494-17.703-34.222-32.756-56.632-44.816zM764.343 829.091c-16.384 0-30.118-12.373-31.825-28.666-1.54-14.692-4.992-23.606-9.724-29.063-3.955-4.558-12.343-10.8-33.626-12.154-16.853-1.072-29.969-15.052-29.969-31.936s13.116-30.863 29.969-31.935c21.282-1.355 29.67-7.596 33.626-12.154 4.732-5.457 8.183-14.37 9.724-29.062 1.707-16.293 15.441-28.666 31.825-28.666 16.38 0 30.118 12.373 31.825 28.666 1.54 14.692 4.992 23.605 9.724 29.062 3.951 4.558 12.343 10.8 33.626 12.154 16.849 1.072 29.969 15.051 29.969 31.935s-13.12 30.863-29.969 31.936c-21.282 1.354-29.675 7.596-33.626 12.154-4.732 5.457-8.183 14.371-9.724 29.063-1.707 16.293-15.445 28.666-31.825 28.666zM640 584.727c15.791 0 29.222-11.52 31.629-27.128 8.768-56.919 24.832-106.6 57.412-143.997 31.825-36.523 82.88-65.229 169.941-73.378 16.457-1.54 29.030-15.36 29.018-31.889s-12.617-30.327-29.073-31.838c-89.105-8.179-140.941-37.005-172.629-73.374-32.35-37.129-47.565-86.477-54.537-143.036-1.954-15.859-15.305-27.844-31.279-28.083-15.97-0.243-29.675 11.332-32.111 27.123-8.768 56.922-24.832 106.603-57.412 143.996-31.825 36.527-82.88 65.233-169.94 73.378-16.446 1.54-29.018 15.343-29.018 31.863 0 16.516 12.572 30.319 29.018 31.859 87.060 8.149 138.115 36.855 169.94 73.378 32.58 37.397 48.644 87.078 57.412 143.997 2.406 15.608 15.838 27.128 31.629 27.128zM513.958 308.365c34.803-16.128 62.857-37.495 85.252-63.198 16.461-18.889 29.38-39.582 39.607-61.303 9.971 21.717 22.763 42.411 39.228 61.303 22.652 25.997 51.285 47.514 86.976 63.671-34.334 16.068-62.059 37.269-84.233 62.72-17.101 19.627-30.383 41.199-40.789 63.851-10.406-22.652-23.689-44.224-40.789-63.851-22.396-25.702-50.449-47.070-85.252-63.194z" />
<glyph unicode="&#xe921;" glyph-name="sparkle-filled" d="M329.143 864c-15.779 0-29.202-11.501-31.622-27.092-6.943-44.732-19.346-82.163-43.658-109.941-23.568-26.928-61.834-48.709-128.904-55.111-16.42-1.568-28.959-15.36-28.959-31.855s12.539-30.288 28.959-31.855c67.070-6.402 105.336-28.183 128.904-55.111 24.312-27.777 36.716-65.209 43.658-109.94 2.455-15.821 16.224-27.392 32.231-27.089 16.007 0.307 29.325 12.395 31.176 28.297 5.155 44.288 16.737 81.297 40.751 108.733 23.395 26.731 62.406 48.663 131.572 55.104 16.439 1.531 29.013 15.316 29.035 31.825 0.017 16.509-12.527 30.324-28.962 31.892-67.068 6.402-105.335 28.183-128.902 55.111-24.312 27.778-36.716 65.209-43.659 109.941-2.42 15.592-15.843 27.092-31.621 27.092zM764.343 829.091c-16.384 0-30.118-12.373-31.825-28.666-1.54-14.692-4.992-23.606-9.724-29.063-3.955-4.558-12.343-10.8-33.626-12.154-16.853-1.072-29.969-15.052-29.969-31.936s13.116-30.863 29.969-31.935c21.282-1.355 29.67-7.596 33.626-12.154 4.732-5.457 8.183-14.37 9.724-29.062 1.707-16.293 15.441-28.666 31.825-28.666 16.38 0 30.118 12.373 31.825 28.666 1.54 14.692 4.992 23.605 9.724 29.062 3.951 4.558 12.343 10.8 33.626 12.154 16.849 1.072 29.969 15.051 29.969 31.935s-13.12 30.863-29.969 31.936c-21.282 1.354-29.675 7.596-33.626 12.154-4.732 5.457-8.183 14.371-9.724 29.063-1.707 16.293-15.445 28.666-31.825 28.666zM640 584.727c-15.791 0-29.222-11.52-31.629-27.128-8.768-56.919-24.832-106.6-57.412-143.997-31.825-36.523-82.88-65.229-169.94-73.378-16.446-1.54-29.018-15.343-29.018-31.859 0-16.521 12.572-30.323 29.018-31.863 87.060-8.145 138.115-36.851 169.94-73.378 32.58-37.393 48.644-87.074 57.412-143.996 2.436-15.791 16.141-27.366 32.111-27.123 15.974 0.239 29.325 12.224 31.279 28.083 6.972 56.559 22.187 105.907 54.537 143.036 31.689 36.369 83.524 65.195 172.629 73.374 16.457 1.51 29.060 15.309 29.073 31.838s-12.561 30.349-29.018 31.889c-87.061 8.149-138.116 36.855-169.941 73.378-32.58 37.397-48.644 87.078-57.412 143.997-2.406 15.608-15.838 27.128-31.629 27.128z" />
<glyph unicode="&#xe922;" glyph-name="speech-sparkle" d="M115.575 649.24c68.987 122.035 217.358 202.429 381.274 178.564l-12.297-84.443c-129.206 18.812-243.112-44.872-294.691-136.114-25.583-45.256-35.739-96.979-25.604-149.476 10.115-52.395 41.090-108.796 103.343-162.044 24.428-20.894 31.645-58.999 10.525-87.654l-44.874-60.885 142.728 77.427c16.97 9.207 36.556 10.061 53.687 3.691 29.355-10.91 120.858-40.597 206.95-28.663 41.933 5.811 80.23 21.171 110.135 51.341 29.811 30.080 55.266 78.886 64.175 159.061l84.809-9.425c-10.483-94.374-41.894-162.812-88.38-209.707-46.387-46.805-103.825-68.147-159.023-75.797-99.9-13.845-199.957 16.102-239.779 30.093l-218.745-118.669c-60.13-32.619-122.623 39.155-82.038 94.225l90.331 122.564c-65.968 60.749-104.239 128.896-117.632 198.268-14.295 74.048 0.405 146.261 35.105 207.644zM371.81 522.667c16.382 0 30.119-12.373 31.825-28.668 1.539-14.69 4.992-23.603 9.724-29.060 3.952-4.557 12.342-10.799 33.626-12.156 16.849-1.071 29.969-15.049 29.969-31.936 0-16.883-13.12-30.861-29.969-31.932-21.283-1.357-29.674-7.599-33.626-12.156-4.731-5.457-8.184-14.37-9.724-29.065-1.707-16.29-15.443-28.663-31.825-28.663s-30.119 12.373-31.826 28.663c-1.539 14.694-4.992 23.607-9.724 29.065-3.952 4.557-12.342 10.799-33.626 12.156-16.85 1.071-29.968 15.049-29.968 31.932 0 16.887 13.118 30.865 29.968 31.936 21.283 1.357 29.674 7.599 33.626 12.156 4.731 5.457 8.184 14.37 9.724 29.060 1.707 16.294 15.443 28.668 31.826 28.668zM640 864c15.791 0 29.222-11.52 31.629-27.127 8.768-56.921 24.832-106.602 57.412-143.997 31.825-36.525 82.88-65.231 169.941-73.379 16.457-1.54 29.030-15.36 29.018-31.889s-12.617-30.327-29.077-31.837c-89.101-8.178-140.937-37.008-172.625-73.373-32.35-37.129-47.565-86.477-54.537-143.040-1.954-15.855-15.305-27.84-31.279-28.083-15.97-0.239-29.675 11.337-32.111 27.127-8.768 56.917-24.832 106.598-57.412 143.996-31.825 36.523-82.88 65.23-169.94 73.378-16.446 1.539-29.018 15.343-29.018 31.861s12.572 30.321 29.018 31.86c87.060 8.148 138.115 36.854 169.94 73.379 32.58 37.394 48.644 87.076 57.412 143.997 2.406 15.607 15.838 27.127 31.629 27.127zM513.958 587.636c34.803-16.125 62.857-37.493 85.252-63.195 16.461-18.893 29.38-39.586 39.607-61.308 9.971 21.722 22.763 42.411 39.228 61.308 22.652 25.995 51.285 47.513 86.976 63.67-34.334 16.069-62.059 37.269-84.233 62.722-17.101 19.625-30.383 41.198-40.789 63.849-10.406-22.651-23.689-44.223-40.789-63.849-22.396-25.704-50.449-47.071-85.252-63.197z" />
<glyph unicode="&#xe923;" glyph-name="speech-sparkle-filled" d="M115.575 649.24c68.987 122.035 217.358 202.429 381.274 178.564l-12.297-84.443c-129.206 18.812-243.112-44.872-294.691-136.114-25.583-45.256-35.739-96.979-25.604-149.476 10.115-52.395 41.090-108.796 103.343-162.044 24.428-20.894 31.645-58.999 10.525-87.654l-44.874-60.885 142.728 77.427c16.97 9.207 36.556 10.061 53.687 3.691 29.355-10.91 120.858-40.597 206.95-28.663 41.933 5.811 80.23 21.171 110.135 51.341 29.811 30.080 55.266 78.886 64.175 159.061l84.809-9.425c-10.483-94.374-41.894-162.812-88.38-209.707-46.387-46.805-103.825-68.147-159.023-75.797-99.9-13.845-199.957 16.102-239.779 30.093l-218.745-118.669c-60.13-32.619-122.623 39.155-82.038 94.225l90.331 122.564c-65.968 60.749-104.239 128.896-117.632 198.268-14.295 74.048 0.405 146.261 35.105 207.644zM371.81 522.667c16.382 0 30.119-12.373 31.825-28.668 1.539-14.69 4.992-23.603 9.724-29.060 3.952-4.557 12.342-10.799 33.626-12.156 16.849-1.071 29.969-15.049 29.969-31.936 0-16.883-13.12-30.861-29.969-31.932-21.283-1.357-29.674-7.599-33.626-12.156-4.731-5.457-8.184-14.37-9.724-29.065-1.707-16.29-15.443-28.663-31.825-28.663s-30.119 12.373-31.826 28.663c-1.539 14.694-4.992 23.607-9.724 29.065-3.952 4.557-12.342 10.799-33.626 12.156-16.85 1.071-29.968 15.049-29.968 31.932 0 16.887 13.118 30.865 29.968 31.936 21.283 1.357 29.674 7.599 33.626 12.156 4.731 5.457 8.184 14.37 9.724 29.060 1.707 16.294 15.443 28.668 31.826 28.668zM640 864c15.791 0 29.222-11.52 31.629-27.127 8.768-56.921 24.832-106.602 57.412-143.997 31.825-36.525 82.88-65.231 169.941-73.379 16.457-1.54 29.030-15.36 29.018-31.889s-12.617-30.327-29.077-31.837c-89.101-8.178-140.937-37.008-172.625-73.373-32.35-37.129-47.565-86.477-54.537-143.040-1.954-15.855-15.305-27.84-31.279-28.083-15.97-0.239-29.675 11.337-32.111 27.127-8.768 56.917-24.832 106.598-57.412 143.996-31.825 36.523-82.88 65.23-169.94 73.378-16.446 1.539-29.018 15.343-29.018 31.861s12.572 30.321 29.018 31.86c87.060 8.148 138.115 36.854 169.94 73.379 32.58 37.394 48.644 87.076 57.412 143.997 2.406 15.607 15.838 27.127 31.629 27.127z" />
<glyph unicode="&#xe924;" glyph-name="stack" d="M511.996 743.558l-273.034-106.181 273.034-121.35 273.037 121.35-273.037 106.181zM488.802 826.096c14.921 5.802 31.471 5.802 46.391 0l328.516-127.757c53.035-20.625 54.797-95.022 2.799-118.132l-328.516-146.010c-16.55-7.351-35.439-7.351-51.989 0l-328.516 146.010c-51.999 23.111-50.238 97.508 2.796 118.132l328.519 127.757zM237.71 296.597l39.624 23.403-85.333 42.667-32.914-5.611c-52.559-21.026-53.952-94.916-2.224-117.909l329.146-146.287c16.546-7.351 35.435-7.351 51.985 0l329.143 146.287c51.729 22.993 50.334 96.883-2.223 117.909l-32.913 5.611-85.333-42.667 39.62-23.403-274.287-121.907-274.29 121.907zM237.71 467.264l39.624 23.403-85.333 42.667-32.914-5.611c-52.559-21.026-53.952-94.916-2.224-117.909l329.146-146.287c16.546-7.351 35.435-7.351 51.985 0l329.143 146.287c51.729 22.993 50.334 96.883-2.223 117.909l-32.913 5.611-85.333-42.667 39.62-23.403-274.287-121.907-274.29 121.907z" />
<glyph unicode="&#xe925;" glyph-name="stack-filled" d="M488.802 826.096c14.921 5.802 31.471 5.802 46.391 0l328.516-127.757c53.035-20.625 54.797-95.022 2.799-118.132l-328.516-146.010c-16.55-7.351-35.439-7.351-51.989 0l-328.516 146.010c-51.999 23.111-50.238 97.508 2.796 118.132l328.519 127.757zM237.71 296.597l39.624 23.403-85.333 42.667-32.914-5.611c-52.559-21.026-53.952-94.916-2.224-117.909l329.146-146.287c16.546-7.351 35.435-7.351 51.985 0l329.143 146.287c51.729 22.993 50.334 96.883-2.223 117.909l-32.913 5.611-85.333-42.667 39.62-23.403-274.287-121.907-274.29 121.907zM237.71 467.264l39.624 23.403-85.333 42.667-32.914-5.611c-52.559-21.026-53.952-94.916-2.224-117.909l329.146-146.287c16.546-7.351 35.435-7.351 51.985 0l329.143 146.287c51.729 22.993 50.334 96.883-2.223 117.909l-32.913 5.611-85.333-42.667 39.62-23.403-274.287-121.907-274.29 121.907z" />
<glyph unicode="&#xe926;" glyph-name="table" d="M85.333 725.333c0 58.91 47.756 106.667 106.667 106.667h640c58.91 0 106.667-47.756 106.667-106.667v-448c0-117.82-95.514-213.333-213.333-213.333h-426.667c-117.821 0-213.333 95.514-213.333 213.333v448zM853.333 682.667h-298.667v-229.926h298.667v229.926zM853.333 367.407h-298.667v-218.074h170.667c70.694 0 128 57.306 128 128v90.074zM469.333 149.333v218.074h-298.667v-90.074c0-70.694 57.308-128 128-128h170.667zM170.667 452.74h298.667v229.926h-298.667v-229.926z" />
<glyph unicode="&#xe927;" glyph-name="thumb-down" d="M185.437 746.505c-5.687-1.057-14.77-7.423-14.77-22.085v-292.105c0-16.166 11.043-22.246 16.399-22.246h117.099v320.582l-118.728 15.854zM389.498 727.545v-350.551l99.381-209.877c5.022-10.603 10.978-14.656 15.215-16.333 4.693-1.856 10.547-2.061 16.695 0.145 11.597 4.169 23.415 16.751 20.207 39.787l-13.38 96.064c-8.397 60.314 34.074 123.29 100.646 123.29h173.18c29.564 0 60.89 34.091 49.702 78.481l-53.978 214.215c-7.070 28.058-28.527 43.43-48.768 43.891l-358.901-19.111zM319.827 324.736h-132.761c-59.887 0-101.733 52.045-101.733 107.58v292.105c0 55.535 41.846 107.58 101.733 107.58 1.888 0 3.775-0.125 5.647-0.375l155.822-20.807 396.66 21.122c0.755 0.040 1.515 0.060 2.27 0.060 64.452 0 116.954-46.891 132.45-108.384l53.973-214.211c22.161-87.932-37.082-184.67-132.446-184.67h-173.18c-3.469 0-7.556-1.574-11.191-6.229-3.699-4.736-6.067-11.831-4.937-19.955l13.38-96.064c8.917-64.034-27.23-114.394-75.883-131.866-49.677-17.843-109.483 0.013-137.876 59.977l-91.929 194.138z" />
<glyph unicode="&#xe928;" glyph-name="thumb-down-filled" d="M185.437 746.505c-5.687-1.057-14.77-7.423-14.77-22.085v-292.105c0-16.166 11.043-22.246 16.399-22.246h117.099v320.582l-118.728 15.854zM319.827 324.736h-132.761c-59.887 0-101.733 52.045-101.733 107.58v292.105c0 55.535 41.846 107.58 101.733 107.58 1.888 0 3.775-0.125 5.647-0.375l155.822-20.807 396.66 21.122c0.755 0.040 1.515 0.060 2.27 0.060 64.452 0 116.954-46.891 132.45-108.384l53.973-214.211c22.161-87.932-37.082-184.67-132.446-184.67h-173.18c-3.469 0-7.556-1.574-11.191-6.229-3.699-4.736-6.067-11.831-4.937-19.955l13.38-96.064c8.917-64.034-27.23-114.394-75.883-131.866-49.677-17.843-109.483 0.013-137.876 59.977l-91.929 194.138z" />
<glyph unicode="&#xe929;" glyph-name="thump-up" d="M185.377 149.504c-5.69 1.092-14.71 7.467-14.71 22.076v292.105c0 16.166 11.043 22.246 16.399 22.246h116.509l-4.401-320.687-113.797-15.74zM384.559 168.457l4.807 350.272 99.512 210.153c5.022 10.606 10.978 14.658 15.215 16.334 4.693 1.856 10.547 2.062 16.695-0.146 11.597-4.165 23.415-16.749 20.207-39.787l-13.38-96.064c-8.397-60.311 34.074-123.288 100.646-123.288h173.18c29.564 0 60.89-34.091 49.702-78.481l-53.978-214.217c-7.070-28.062-28.535-43.435-48.781-43.891l-363.827 19.115zM319.827 571.266h-132.761c-59.887 0-101.733-52.047-101.733-107.582v-292.105c0-55.535 41.846-107.58 101.733-107.58 1.955 0 3.908 0.132 5.844 0.401l150.243 20.779 402.071-21.12c0.747-0.038 1.493-0.060 2.24-0.060 64.452 0 116.954 46.891 132.45 108.382l53.973 214.212c22.161 87.932-37.082 184.672-132.446 184.672h-173.18c-3.469 0-7.556 1.574-11.191 6.228-3.699 4.734-6.067 11.833-4.937 19.955l13.38 96.063c8.917 64.035-27.23 114.394-75.883 131.869-49.677 17.841-109.483-0.013-137.876-59.978l-91.929-194.136z" />
<glyph unicode="&#xe92a;" glyph-name="thump-up-filled" d="M185.377 149.504c-5.69 1.092-14.71 7.467-14.71 22.076v292.105c0 16.166 11.043 22.246 16.399 22.246h116.509l-4.401-320.687-113.797-15.74zM319.827 571.266h-132.761c-59.887 0-101.733-52.047-101.733-107.582v-292.105c0-55.535 41.846-107.58 101.733-107.58 1.955 0 3.908 0.132 5.844 0.401l150.243 20.779 402.071-21.12c0.747-0.038 1.493-0.060 2.24-0.060 64.452 0 116.954 46.891 132.45 108.382l53.973 214.212c22.161 87.932-37.082 184.672-132.446 184.672h-173.18c-3.469 0-7.556 1.574-11.191 6.228-3.699 4.734-6.067 11.833-4.937 19.955l13.38 96.063c8.917 64.035-27.23 114.394-75.883 131.869-49.677 17.841-109.483-0.013-137.876-59.978l-91.929-194.136z" />
<glyph unicode="&#xe92b;" glyph-name="tick" d="M890.048 689.214c8.491-8.166 8.759-21.671 0.593-30.164l-503.47-523.604c-24.839-25.835-66.047-26.24-91.388-0.896l-182.865 182.861c-8.331 8.333-8.331 21.841 0 30.174l30.17 30.17c8.331 8.329 21.839 8.329 30.17 0l152.097-152.098c8.447-8.448 22.183-8.311 30.463 0.299l473.31 492.241c8.166 8.493 21.67 8.758 30.165 0.591l30.754-29.573z" />
<glyph unicode="&#xe92c;" glyph-name="x" d="M436.578 432.913c8.333 8.329 8.333 21.837 0 30.17l-280.993 280.992c-8.331 8.332-8.331 21.839 0 30.17l30.17 30.17c8.331 8.331 21.839 8.331 30.17 0l280.993-280.993c8.333-8.333 21.841-8.333 30.17 0l280.994 280.993c8.333 8.331 21.841 8.331 30.17 0l30.17-30.17c8.333-8.331 8.333-21.839 0-30.17l-280.994-280.993c-8.329-8.333-8.329-21.841 0-30.17l280.994-280.994c8.333-8.333 8.333-21.841 0-30.17l-30.17-30.17c-8.329-8.333-21.837-8.333-30.17 0l-280.994 280.994c-8.329 8.329-21.837 8.329-30.17 0l-280.992-280.994c-8.332-8.333-21.839-8.333-30.17 0l-30.17 30.17c-8.331 8.329-8.331 21.837 0 30.17l280.993 280.994z" />
<glyph unicode="&#xe92d;" glyph-name="csv" d="M277.333 874.667h320c20.143 0 39.113-9.484 51.2-25.6l234.667-312.889c8.307-11.079 12.8-24.553 12.8-38.399v-321.818c0-82.475-66.859-149.333-149.333-149.333h-469.333c-82.475 0-149.333 66.859-149.333 149.333v549.372c0 82.475 66.859 149.333 149.333 149.333zM277.333 789.333c-35.346 0-64-28.654-64-64v-554.667c0-35.345 28.654-64 64-64h469.333c35.345 0 64 28.655 64 64v333.956l-223.701 284.71h-309.632zM245.125 296.538c0 20.506 4.579 38.827 13.739 54.955 9.358 16.324 22.001 28.971 37.931 37.931 16.128 9.156 34.147 13.739 54.059 13.739 23.296 0 43.705-5.973 61.227-17.92s29.768-28.476 36.735-49.579h-48.084c-4.779 9.954-11.549 17.421-20.309 22.4-8.562 4.975-18.517 7.467-29.867 7.467-12.146 0-22.997-2.889-32.555-8.661-9.359-5.577-16.725-13.542-22.101-23.893-5.177-10.355-7.765-22.502-7.765-36.437 0-13.739 2.588-25.886 7.765-36.437 5.376-10.355 12.743-18.419 22.101-24.192 9.557-5.577 20.409-8.363 32.555-8.363 11.349 0 21.305 2.487 29.867 7.467 8.761 5.175 15.531 12.74 20.309 22.699h48.084c-6.967-21.308-19.213-37.931-36.735-49.877-17.323-11.75-37.732-17.621-61.227-17.621-19.911 0-37.931 4.48-54.059 13.44-15.929 9.156-28.573 21.803-37.931 37.931-9.159 16.128-13.739 34.445-13.739 54.955zM526.643 189.914c-14.537 0-27.678 2.487-39.424 7.467-11.55 4.975-20.71 12.143-27.477 21.504-6.771 9.357-10.257 20.407-10.453 33.152h44.8c0.597-8.563 3.584-15.334 8.96-20.309 5.572-4.979 13.141-7.467 22.699-7.467 9.754 0 17.421 2.287 22.997 6.869 5.572 4.779 8.363 10.948 8.363 18.517 0 6.17-1.894 11.247-5.675 15.232-3.785 3.981-8.563 7.066-14.336 9.259-5.577 2.389-13.342 4.975-23.296 7.765-13.542 3.981-24.593 7.863-33.152 11.648-8.363 3.981-15.633 9.856-21.803 17.621-5.973 7.962-8.96 18.517-8.96 31.659 0 12.343 3.085 23.095 9.259 32.256 6.17 9.156 14.831 16.128 25.984 20.907 11.149 4.975 23.893 7.467 38.229 7.467 21.504 0 38.925-5.278 52.267-15.829 13.538-10.355 21.005-24.892 22.4-43.605h-45.995c-0.401 7.168-3.486 13.039-9.259 17.621-5.577 4.779-13.043 7.168-22.4 7.168-8.166 0-14.737-2.091-19.712-6.272-4.779-4.181-7.168-10.257-7.168-18.219 0-5.577 1.792-10.257 5.376-14.037 3.78-3.584 8.363-6.571 13.739-8.96 5.572-2.193 13.338-4.779 23.296-7.765 13.538-3.985 24.589-7.966 33.152-11.947 8.559-3.985 15.927-9.958 22.101-17.92 6.17-7.966 9.259-18.419 9.259-31.36 0-11.153-2.889-21.504-8.661-31.061-5.777-9.557-14.238-17.225-25.387-22.997-11.153-5.577-24.393-8.363-39.723-8.363zM794.061 400.474l-76.459-208.469h-50.773l-76.459 208.469h44.8l57.344-165.76 57.045 165.76h44.501z" />
<glyph unicode="&#xe92e;" glyph-name="history" d="M550.4 768c-135.518 0-252.283-94.807-290.089-227.385l11.113 5.144c10.692 4.949 23.372 0.294 28.321-10.399l17.923-38.72c4.949-10.692 0.293-23.373-10.399-28.322l-98.917-45.786c-8.782-4.062-19.199-1.711-25.379 5.739l-74.184 89.399c-7.524 9.067-6.273 22.516 2.794 30.040l32.834 27.246c9.067 7.524 22.516 6.273 30.040-2.794l4.605-5.55c48.376 165.004 195.151 286.721 371.336 286.721 216.35 0 388.267-183.436 388.267-405.333s-171.917-405.333-388.267-405.333c-128.085 0-241.017 64.67-311.432 163.23-6.849 9.583-3.889 22.814 6.045 29.15l35.972 22.946c9.933 6.336 23.066 3.366 30.046-6.123 55.783-75.861 142.601-123.87 239.369-123.87 165.393 0 302.933 141.308 302.933 320s-137.54 320-302.933 320zM565.026 411.196c-6.43 3.857-10.359 10.803-10.359 18.295v125.175c0 11.782-9.553 21.333-21.333 21.333v0c-11.78 0-21.333-9.551-21.333-21.333v-149.333c0-7.492 3.93-14.438 10.359-18.291l88.371-53.026c10.103-6.063 23.206-2.786 29.269 7.317v0c6.063 10.103 2.786 23.206-7.317 29.269l-67.657 40.593z" />
<glyph unicode="&#xe92f;" glyph-name="chevron-down" d="M526.174 347.012c-8.081-7.185-20.262-7.185-28.343 0l-325.537 289.367c-8.806 7.828-22.29 7.034-30.118-1.772l-28.346-31.889c-7.828-8.806-7.034-22.29 1.772-30.118l382.229-339.759c8.081-7.185 20.262-7.185 28.343 0l382.229 339.759c8.806 7.828 9.6 21.312 1.771 30.118l-28.343 31.889c-7.829 8.806-21.312 9.599-30.118 1.772l-325.538-289.367z" />
<glyph unicode="&#xe930;" glyph-name="chevron-left" d="M411.014 433.826c-7.185 8.081-7.185 20.262 0 28.343l289.364 325.537c7.829 8.806 7.036 22.29-1.771 30.118l-31.889 28.346c-8.806 7.828-22.289 7.034-30.118-1.772l-339.758-382.229c-7.185-8.081-7.185-20.262 0-28.343l339.758-382.229c7.829-8.806 21.312-9.6 30.118-1.771l31.889 28.343c8.806 7.829 9.6 21.312 1.771 30.118l-289.364 325.538z" />
<glyph unicode="&#xe931;" glyph-name="chevron-right" d="M612.988 462.174c7.185-8.081 7.185-20.262 0-28.343l-289.367-325.538c-7.828-8.806-7.034-22.289 1.772-30.118l31.889-28.343c8.806-7.829 22.29-7.036 30.118 1.771l339.759 382.229c7.185 8.081 7.185 20.262 0 28.343l-339.759 382.23c-7.828 8.806-21.312 9.599-30.118 1.772l-31.889-28.346c-8.806-7.828-9.599-21.312-1.772-30.118l289.367-325.538z" />
<glyph unicode="&#xe932;" glyph-name="chevron-up" d="M497.826 548.986c8.081 7.185 20.262 7.185 28.343 0l325.538-289.364c8.806-7.829 22.289-7.036 30.118 1.771l28.343 31.889c7.829 8.806 7.036 22.289-1.771 30.118l-382.229 339.758c-8.081 7.185-20.262 7.185-28.343 0l-382.23-339.758c-8.806-7.829-9.599-21.312-1.772-30.118l28.346-31.889c7.828-8.806 21.312-9.6 30.118-1.771l325.538 289.364z" />
<glyph unicode="&#xe933;" glyph-name="i" d="M170.667 448c0-188.514 152.82-341.333 341.333-341.333s341.333 152.819 341.333 341.333c0 188.513-152.819 341.333-341.333 341.333s-341.333-152.82-341.333-341.333zM512 21.333c-235.642 0-426.667 191.027-426.667 426.667 0 235.642 191.025 426.667 426.667 426.667 235.639 0 426.667-191.025 426.667-426.667 0-235.639-191.027-426.667-426.667-426.667zM520.657 550.144c-9.698 0-17.835 3.285-24.405 9.856s-9.856 14.706-9.856 24.405c0 9.699 3.285 17.835 9.856 24.405s14.707 9.856 24.405 9.856c9.387 0 17.365-3.285 23.936-9.856s9.856-14.706 9.856-24.405c0-9.699-3.285-17.835-9.856-24.405s-14.549-9.856-23.936-9.856zM546.94 515.883l-2.347-217.216h-48.341l-2.816 217.216h53.504z" />
<glyph unicode="&#xe934;" glyph-name="triangle-down" d="M512.004 586.773l-356.236 0.007c-19.616 0-28.835-24.245-14.173-37.278l356.235-316.653c8.081-7.185 20.262-7.185 28.343 0l356.237 316.653c14.66 13.033 5.44 37.279-14.174 37.278l-356.233-0.007z" />
<glyph unicode="&#xe935;" glyph-name="triangle-left" d="M650.773 447.996l0.009 356.236c0 19.616-24.247 28.835-37.278 14.173l-316.655-356.235c-7.185-8.081-7.185-20.262 0-28.343l316.655-356.237c13.030-14.66 37.278-5.44 37.278 14.174l-0.009 356.233z" />
<glyph unicode="&#xe936;" glyph-name="triangle-right" d="M373.227 448.004l-0.007-356.237c0-19.614 24.245-28.834 37.278-14.174l316.653 356.237c7.185 8.081 7.185 20.262 0 28.343l-316.653 356.236c-13.033 14.662-37.279 5.443-37.278-14.173l0.007-356.232z" />
<glyph unicode="&#xe937;" glyph-name="triangle-up" d="M511.996 309.227l356.237-0.009c19.614 0 28.834 24.247 14.174 37.278l-356.237 316.655c-8.081 7.185-20.262 7.185-28.343 0l-356.236-316.655c-14.662-13.030-5.443-37.278 14.173-37.278l356.232 0.009z" />
<glyph unicode="&#xe938;" glyph-name="arrow-left" d="M461.367 216.964c-6.707-9.536-19.831-11.917-29.466-5.346l-320.729 218.756c-12.417 8.469-12.417 26.782 0 35.251l320.729 218.752c9.634 6.57 22.758 4.189 29.466-5.347l24.734-35.147c6.78-9.635 4.467-22.943-5.167-29.724l-175.497-123.498h611.896c11.78 0 21.333-9.549 21.333-21.333v-42.667c0-11.78-9.553-21.333-21.333-21.333h-611.896l175.497-123.494c9.634-6.78 11.947-20.087 5.167-29.726l-24.734-35.145z" />
<glyph unicode="&#xe939;" glyph-name="arrow-down" d="M743.036 397.367c9.536-6.707 11.917-19.831 5.346-29.466l-218.756-320.73c-8.469-12.416-26.782-12.416-35.251 0l-218.752 320.73c-6.57 9.634-4.189 22.758 5.347 29.466l35.147 24.734c9.635 6.78 22.943 4.467 29.724-5.167l123.498-175.497v611.895c0 11.782 9.549 21.333 21.333 21.333h42.667c11.78 0 21.333-9.551 21.333-21.333v-611.895l123.494 175.497c6.78 9.634 20.087 11.947 29.726 5.167l35.145-24.734z" />
<glyph unicode="&#xe93a;" glyph-name="arrow-up" d="M280.964 498.633c-9.536 6.707-11.918 19.831-5.347 29.466l218.757 320.729c8.469 12.417 26.782 12.417 35.251 0l218.752-320.729c6.571-9.634 4.19-22.758-5.346-29.466l-35.149-24.734c-9.634-6.78-22.942-4.467-29.722 5.167l-123.499 175.497v-611.896c0-11.78-9.549-21.333-21.333-21.333h-42.667c-11.78 0-21.333 9.553-21.333 21.333v611.896l-123.495-175.497c-6.781-9.634-20.088-11.947-29.724-5.167l-35.146 24.734z" />
<glyph unicode="&#xe93b;" glyph-name="link" d="M179.765 158.443c-61.916 61.918-61.916 162.304 0 224.218l173.267 173.268c63.645 63.645 166.831 63.645 230.477 0l22.656-22.655-60.339-60.339-22.656 22.656c-30.319 30.319-79.479 30.319-109.798 0l-173.267-173.269c-28.592-28.591-28.592-74.948 0-103.539s74.947-28.591 103.539 0l69.483 69.483 60.34-60.339-69.484-69.483c-61.916-61.918-162.302-61.918-224.219 0zM858.496 737.568c61.914-61.916 61.914-162.302 0-224.219l-173.269-173.265c-63.642-63.646-166.831-63.646-230.477 0l-45.069 45.069 60.339 60.339 45.069-45.069c30.319-30.319 79.479-30.319 109.798 0l173.269 173.266c28.591 28.592 28.591 74.947 0 103.539-28.595 28.591-74.948 28.591-103.539 0l-69.483-69.483-60.343 60.34 69.487 69.483c61.914 61.916 162.3 61.916 224.218 0z" />
</font>
</defs>
</svg>
